<?xml version="1.0" standalone="no"?>
<!DOCTYPE svg PUBLIC "-//W3C//DTD SVG 20010904//EN"
 "http://www.w3.org/TR/2001/REC-SVG-20010904/DTD/svg10.dtd">
<svg version="1.0" xmlns="http://www.w3.org/2000/svg"
 width="595.000000pt" height="595.000000pt" viewBox="0 0 595.000000 595.000000"
 preserveAspectRatio="xMidYMid meet">
<metadata>
Created by potrace 1.14, written by Peter Selinger 2001-2017
</metadata>
<g transform="translate(0.000000,595.000000) scale(0.100000,-0.100000)"
fill="#000000" stroke="none">
<path d="M2828 5535 c-2 -2 -37 -5 -78 -9 -83 -7 -105 -9 -200 -26 -36 -6 -74
-12 -85 -14 -11 -2 -51 -11 -90 -21 -38 -9 -77 -18 -85 -20 -22 -5 -122 -36
-145 -45 -11 -4 -58 -23 -105 -41 -112 -42 -298 -136 -413 -206 -51 -31 -94
-59 -97 -63 -3 -3 -27 -22 -55 -40 -126 -86 -326 -270 -439 -404 -22 -27 -48
-57 -56 -66 -8 -9 -31 -38 -50 -66 -19 -27 -42 -58 -52 -68 -10 -11 -18 -25
-18 -32 0 -7 -4 -14 -8 -16 -10 -4 -81 -118 -123 -198 -18 -36 -37 -68 -42
-71 -5 -3 -9 -9 -8 -12 0 -6 -18 -50 -60 -142 -17 -40 -66 -168 -70 -183 -2
-9 -4 -16 -23 -77 -20 -65 -53 -200 -60 -245 -3 -19 -8 -46 -10 -60 -25 -136
-35 -258 -36 -425 0 -156 13 -325 36 -440 3 -11 7 -36 10 -55 19 -122 93 -360
160 -517 170 -397 461 -772 799 -1025 6 -4 24 -18 40 -31 53 -41 202 -135 267
-169 35 -18 65 -35 68 -38 15 -16 320 -146 361 -154 8 -2 21 -6 29 -9 71 -27
302 -82 385 -92 17 -2 46 -6 65 -9 148 -24 530 -25 660 -2 14 2 59 10 100 16
113 18 329 71 390 97 8 3 20 7 26 8 39 9 219 88 330 144 285 147 522 333 748
584 64 71 79 90 131 162 11 15 26 33 33 40 6 8 12 16 12 19 0 3 15 27 34 53
65 92 185 313 228 423 6 14 16 39 23 55 33 74 98 292 120 400 13 66 35 203 42
260 14 125 7 554 -11 641 -2 12 -7 39 -11 60 -16 93 -22 124 -37 179 -5 22
-12 47 -13 55 -25 115 -121 364 -197 510 -51 96 -80 149 -90 164 -4 6 -33 49
-65 96 -31 47 -60 89 -65 95 -152 191 -249 295 -383 410 -39 33 -72 63 -75 66
-3 3 -36 27 -75 54 -38 27 -72 52 -75 55 -5 6 -127 81 -200 124 -87 51 -274
136 -375 171 -27 9 -59 21 -70 25 -11 5 -33 12 -50 16 -16 4 -32 8 -35 9 -24
7 -97 28 -105 30 -5 1 -28 5 -50 10 -49 9 -68 14 -97 20 -13 3 -39 7 -58 10
-19 3 -44 7 -55 9 -65 13 -486 30 -497 21z"/>
</g>
</svg>
